<?xml version="1.0" encoding="UTF-8"?>
<svg xmlns="http://www.w3.org/2000/svg" xmlns:xlink="http://www.w3.org/1999/xlink" width="24px" height="24px" viewBox="0 0 24 24" version="1.1">
<g id="surface1">
<path style=" stroke:none;fill-rule:nonzero;fill:rgb(100%,100%,100%);fill-opacity:1;" d="M 20.484375 5.339844 L 13.378906 1.125 C 12.964844 0.878906 12.492188 0.75 12.011719 0.75 C 11.53125 0.75 11.058594 0.878906 10.648438 1.125 L 3.542969 5.339844 C 3.121094 5.59375 2.773438 5.949219 2.53125 6.378906 C 2.289062 6.804688 2.160156 7.289062 2.164062 7.78125 L 2.164062 16.21875 C 2.160156 16.707031 2.285156 17.191406 2.527344 17.617188 C 2.765625 18.046875 3.113281 18.40625 3.53125 18.660156 L 10.636719 22.875 C 11.050781 23.121094 11.519531 23.25 12 23.25 C 12.480469 23.25 12.953125 23.121094 13.367188 22.875 L 20.46875 18.660156 C 20.890625 18.40625 21.238281 18.046875 21.476562 17.621094 C 21.71875 17.191406 21.84375 16.707031 21.839844 16.21875 L 21.839844 7.78125 C 21.84375 7.292969 21.722656 6.8125 21.484375 6.382812 C 21.246094 5.957031 20.902344 5.597656 20.484375 5.339844 Z M 14.980469 18.511719 L 14.980469 19.117188 C 14.976562 19.15625 14.96875 19.191406 14.949219 19.222656 C 14.933594 19.257812 14.90625 19.285156 14.875 19.304688 L 14.515625 19.507812 C 14.457031 19.539062 14.410156 19.507812 14.410156 19.429688 L 14.410156 18.835938 C 14.15625 18.960938 13.867188 18.988281 13.59375 18.914062 C 13.570312 18.902344 13.554688 18.878906 13.546875 18.855469 C 13.539062 18.832031 13.542969 18.804688 13.550781 18.78125 L 13.679688 18.234375 C 13.6875 18.203125 13.703125 18.175781 13.71875 18.148438 C 13.738281 18.125 13.761719 18.105469 13.789062 18.089844 C 13.796875 18.085938 13.808594 18.082031 13.816406 18.082031 C 13.828125 18.082031 13.835938 18.085938 13.84375 18.089844 C 14.097656 18.15625 14.363281 18.121094 14.589844 17.992188 C 14.75 17.914062 14.886719 17.792969 14.984375 17.644531 C 15.082031 17.496094 15.136719 17.320312 15.144531 17.144531 C 15.144531 16.835938 14.976562 16.707031 14.570312 16.703125 C 14.054688 16.703125 13.578125 16.605469 13.566406 15.84375 C 13.570312 15.515625 13.648438 15.199219 13.792969 14.90625 C 13.9375 14.613281 14.144531 14.359375 14.398438 14.15625 L 14.398438 13.546875 C 14.398438 13.507812 14.410156 13.46875 14.425781 13.4375 C 14.445312 13.402344 14.472656 13.375 14.503906 13.355469 L 14.851562 13.136719 C 14.910156 13.105469 14.957031 13.136719 14.957031 13.214844 L 14.957031 13.828125 C 15.167969 13.734375 15.40625 13.703125 15.636719 13.746094 C 15.660156 13.761719 15.679688 13.785156 15.6875 13.808594 C 15.695312 13.835938 15.691406 13.863281 15.679688 13.890625 L 15.558594 14.433594 C 15.542969 14.488281 15.511719 14.535156 15.460938 14.566406 C 15.445312 14.574219 15.425781 14.574219 15.410156 14.566406 C 15.1875 14.519531 14.953125 14.558594 14.753906 14.675781 C 14.613281 14.738281 14.488281 14.839844 14.402344 14.96875 C 14.3125 15.097656 14.265625 15.25 14.257812 15.40625 C 14.257812 15.683594 14.40625 15.769531 14.894531 15.777344 C 15.554688 15.777344 15.835938 16.074219 15.84375 16.734375 C 15.839844 17.078125 15.757812 17.414062 15.609375 17.71875 C 15.460938 18.027344 15.246094 18.296875 14.980469 18.511719 Z M 18.699219 17.492188 C 18.707031 17.515625 18.703125 17.542969 18.691406 17.566406 C 18.683594 17.59375 18.667969 17.613281 18.644531 17.628906 L 16.847656 18.71875 C 16.839844 18.726562 16.832031 18.730469 16.820312 18.730469 C 16.808594 18.734375 16.796875 18.730469 16.789062 18.722656 C 16.78125 18.71875 16.773438 18.710938 16.769531 18.699219 C 16.765625 18.691406 16.761719 18.679688 16.765625 18.667969 L 16.765625 18.203125 C 16.765625 18.179688 16.773438 18.15625 16.789062 18.136719 C 16.804688 18.113281 16.824219 18.097656 16.847656 18.089844 L 18.617188 17.03125 C 18.625 17.023438 18.636719 17.019531 18.644531 17.019531 C 18.65625 17.019531 18.667969 17.023438 18.675781 17.027344 C 18.6875 17.035156 18.695312 17.042969 18.699219 17.050781 C 18.703125 17.0625 18.703125 17.074219 18.699219 17.082031 Z M 19.941406 7.121094 L 13.21875 11.273438 C 12.378906 11.769531 11.761719 12.3125 11.761719 13.324219 L 11.761719 21.601562 C 11.761719 22.210938 12.011719 22.597656 12.382812 22.714844 C 12.257812 22.738281 12.136719 22.75 12.011719 22.753906 C 11.613281 22.753906 11.226562 22.644531 10.886719 22.441406 L 3.78125 18.226562 C 3.4375 18.015625 3.152344 17.722656 2.957031 17.371094 C 2.757812 17.019531 2.65625 16.621094 2.65625 16.21875 L 2.65625 7.78125 C 2.65625 7.378906 2.757812 6.980469 2.957031 6.628906 C 3.152344 6.277344 3.4375 5.980469 3.78125 5.773438 L 10.890625 1.558594 C 11.226562 1.355469 11.613281 1.25 12.007812 1.25 C 12.398438 1.25 12.785156 1.355469 13.125 1.558594 L 20.226562 5.773438 C 20.515625 5.949219 20.765625 6.1875 20.953125 6.464844 C 21.140625 6.746094 21.265625 7.066406 21.320312 7.398438 C 21.089844 6.898438 20.558594 6.757812 19.941406 7.121094 Z M 19.941406 7.121094 "/>
</g>
</svg>
