<?xml version="1.0" encoding="UTF-8"?>
<svg xmlns="http://www.w3.org/2000/svg" xmlns:xlink="http://www.w3.org/1999/xlink" width="24px" height="24px" viewBox="0 0 24 24" version="1.1">
<g id="surface1">
<path style=" stroke:none;fill-rule:nonzero;fill:rgb(100%,100%,100%);fill-opacity:1;" d="M 11.84375 5.777344 C 11.890625 5.800781 11.929688 5.859375 11.984375 5.859375 C 12.039062 5.859375 12.117188 5.839844 12.121094 5.789062 C 12.132812 5.722656 12.03125 5.679688 11.972656 5.652344 C 11.890625 5.621094 11.789062 5.605469 11.714844 5.648438 C 11.695312 5.65625 11.675781 5.679688 11.6875 5.699219 C 11.699219 5.761719 11.792969 5.75 11.84375 5.777344 Z M 10.820312 5.859375 C 10.875 5.859375 10.914062 5.800781 10.960938 5.777344 C 11.011719 5.75 11.105469 5.761719 11.125 5.703125 C 11.132812 5.683594 11.113281 5.660156 11.09375 5.652344 C 11.019531 5.609375 10.917969 5.625 10.835938 5.65625 C 10.777344 5.683594 10.679688 5.726562 10.6875 5.792969 C 10.691406 5.839844 10.773438 5.863281 10.820312 5.859375 Z M 21.183594 18.925781 C 21.015625 18.738281 20.933594 18.382812 20.84375 18.003906 C 20.761719 17.625 20.664062 17.214844 20.351562 16.953125 C 20.292969 16.902344 20.230469 16.855469 20.164062 16.816406 C 20.105469 16.78125 20.039062 16.746094 19.972656 16.722656 C 20.40625 15.445312 20.234375 14.167969 19.800781 13.015625 C 19.265625 11.605469 18.332031 10.371094 17.621094 9.527344 C 16.820312 8.519531 16.039062 7.566406 16.054688 6.152344 C 16.078125 4.003906 16.292969 0.00390625 12.5 0 C 7.703125 -0.0117188 8.902344 4.847656 8.851562 6.335938 C 8.769531 7.433594 8.550781 8.296875 7.796875 9.371094 C 6.910156 10.425781 5.664062 12.125 5.070312 13.902344 C 4.789062 14.742188 4.660156 15.59375 4.78125 16.402344 C 4.476562 16.671875 4.246094 17.089844 4.003906 17.347656 C 3.804688 17.550781 3.519531 17.625 3.207031 17.738281 C 2.890625 17.847656 2.550781 18.019531 2.339844 18.417969 C 2.242188 18.597656 2.207031 18.796875 2.207031 18.996094 C 2.207031 19.179688 2.234375 19.367188 2.265625 19.550781 C 2.320312 19.929688 2.382812 20.285156 2.300781 20.527344 C 2.058594 21.199219 2.023438 21.667969 2.199219 22.011719 C 2.375 22.355469 2.734375 22.503906 3.140625 22.589844 C 3.953125 22.757812 5.054688 22.714844 5.921875 23.175781 C 6.847656 23.660156 7.789062 23.835938 8.539062 23.660156 C 9.085938 23.539062 9.53125 23.210938 9.753906 22.714844 C 10.339844 22.710938 10.988281 22.460938 12.019531 22.40625 C 12.71875 22.347656 13.59375 22.652344 14.601562 22.597656 C 14.628906 22.707031 14.667969 22.8125 14.71875 22.910156 L 14.71875 22.917969 C 15.109375 23.699219 15.835938 24.054688 16.609375 23.996094 C 17.386719 23.933594 18.207031 23.480469 18.871094 22.6875 C 19.507812 21.917969 20.558594 21.597656 21.257812 21.175781 C 21.605469 20.964844 21.886719 20.703125 21.910156 20.320312 C 21.929688 19.933594 21.703125 19.507812 21.183594 18.925781 Z M 11.980469 4.089844 C 12.441406 3.050781 13.585938 3.070312 14.042969 4.074219 C 14.347656 4.738281 14.210938 5.519531 13.84375 5.964844 C 13.765625 5.929688 13.566406 5.84375 13.25 5.738281 C 13.304688 5.679688 13.398438 5.609375 13.433594 5.519531 C 13.660156 4.96875 13.425781 4.253906 13.007812 4.242188 C 12.664062 4.21875 12.355469 4.746094 12.453125 5.320312 C 12.261719 5.226562 12.015625 5.15625 11.84375 5.113281 C 11.796875 4.789062 11.832031 4.429688 11.980469 4.089844 Z M 10.074219 3.550781 C 10.546875 3.550781 11.046875 4.21875 10.96875 5.121094 C 10.804688 5.167969 10.636719 5.238281 10.492188 5.339844 C 10.546875 4.921875 10.335938 4.394531 10.039062 4.417969 C 9.648438 4.453125 9.582031 5.414062 9.957031 5.738281 C 10.003906 5.773438 10.046875 5.726562 9.679688 5.996094 C 8.949219 5.308594 9.1875 3.550781 10.074219 3.550781 Z M 9.4375 6.398438 C 9.726562 6.183594 10.074219 5.929688 10.097656 5.90625 C 10.316406 5.699219 10.730469 5.238281 11.40625 5.238281 C 11.738281 5.238281 12.136719 5.347656 12.617188 5.65625 C 12.914062 5.847656 13.148438 5.863281 13.679688 6.09375 C 14.070312 6.257812 14.320312 6.546875 14.171875 6.945312 C 14.046875 7.277344 13.65625 7.621094 13.105469 7.792969 C 12.585938 7.964844 12.179688 8.542969 11.316406 8.492188 C 11.132812 8.484375 10.988281 8.445312 10.867188 8.394531 C 10.492188 8.230469 10.292969 7.90625 9.929688 7.691406 C 9.523438 7.464844 9.308594 7.203125 9.238281 6.972656 C 9.171875 6.746094 9.238281 6.550781 9.4375 6.398438 Z M 9.589844 22.054688 C 9.464844 23.699219 7.53125 23.667969 6.0625 22.898438 C 4.660156 22.15625 2.84375 22.59375 2.476562 21.871094 C 2.363281 21.652344 2.363281 21.277344 2.597656 20.632812 L 2.597656 20.625 C 2.710938 20.269531 2.625 19.875 2.570312 19.503906 C 2.511719 19.136719 2.484375 18.800781 2.609375 18.566406 C 2.773438 18.253906 3.007812 18.140625 3.304688 18.035156 C 3.789062 17.863281 3.859375 17.878906 4.222656 17.574219 C 4.480469 17.304688 4.667969 16.96875 4.894531 16.730469 C 5.132812 16.472656 5.363281 16.347656 5.722656 16.40625 C 6.101562 16.460938 6.429688 16.722656 6.75 17.15625 L 7.667969 18.824219 C 8.113281 19.757812 9.6875 21.09375 9.589844 22.054688 Z M 9.523438 20.839844 C 9.332031 20.53125 9.074219 20.203125 8.851562 19.921875 C 9.183594 19.921875 9.515625 19.816406 9.632812 19.503906 C 9.742188 19.214844 9.632812 18.804688 9.285156 18.335938 C 8.652344 17.484375 7.492188 16.8125 7.492188 16.8125 C 6.859375 16.417969 6.5 15.9375 6.335938 15.410156 C 6.171875 14.886719 6.195312 14.320312 6.324219 13.761719 C 6.566406 12.6875 7.195312 11.644531 7.597656 10.988281 C 7.707031 10.90625 7.636719 11.136719 7.191406 11.960938 C 6.792969 12.714844 6.046875 14.460938 7.070312 15.824219 C 7.097656 14.855469 7.328125 13.863281 7.714844 12.941406 C 8.277344 11.65625 9.464844 9.429688 9.558594 7.660156 C 9.609375 7.695312 9.773438 7.808594 9.847656 7.851562 C 10.0625 7.976562 10.226562 8.164062 10.4375 8.332031 C 11.019531 8.800781 11.773438 8.765625 12.425781 8.390625 C 12.71875 8.226562 12.953125 8.039062 13.171875 7.96875 C 13.636719 7.824219 14.007812 7.566406 14.21875 7.265625 C 14.578125 8.691406 15.421875 10.746094 15.960938 11.75 C 16.246094 12.285156 16.820312 13.414062 17.066406 14.777344 C 17.222656 14.773438 17.394531 14.796875 17.578125 14.84375 C 18.226562 13.171875 17.03125 11.367188 16.484375 10.863281 C 16.265625 10.648438 16.257812 10.554688 16.363281 10.558594 C 16.953125 11.085938 17.734375 12.140625 18.015625 13.324219 C 18.144531 13.871094 18.167969 14.4375 18.03125 15 C 18.800781 15.316406 19.714844 15.839844 19.472656 16.628906 C 19.367188 16.625 19.320312 16.628906 19.273438 16.628906 C 19.425781 16.15625 19.09375 15.804688 18.207031 15.40625 C 17.289062 15.003906 16.519531 15.003906 16.410156 15.992188 C 15.84375 16.191406 15.554688 16.683594 15.40625 17.273438 C 15.277344 17.796875 15.238281 18.429688 15.203125 19.144531 C 15.179688 19.503906 15.03125 19.988281 14.882812 20.503906 C 13.378906 21.574219 11.289062 22.042969 9.523438 20.839844 Z M 21.589844 20.300781 C 21.546875 21.089844 19.660156 21.234375 18.628906 22.480469 C 18.007812 23.214844 17.25 23.625 16.585938 23.675781 C 15.917969 23.726562 15.34375 23.449219 15.003906 22.769531 C 14.785156 22.25 14.890625 21.6875 15.054688 21.070312 C 15.230469 20.402344 15.488281 19.71875 15.519531 19.167969 C 15.558594 18.453125 15.601562 17.832031 15.71875 17.351562 C 15.839844 16.871094 16.027344 16.546875 16.359375 16.363281 C 16.375 16.355469 16.390625 16.347656 16.40625 16.339844 C 16.445312 16.957031 16.75 17.585938 17.289062 17.722656 C 17.878906 17.878906 18.726562 17.371094 19.085938 16.957031 C 19.507812 16.945312 19.824219 16.917969 20.148438 17.199219 C 20.609375 17.597656 20.480469 18.617188 20.949219 19.148438 C 21.445312 19.691406 21.605469 20.0625 21.589844 20.300781 Z M 9.617188 6.96875 C 9.710938 7.058594 9.839844 7.179688 9.992188 7.300781 C 10.304688 7.546875 10.734375 7.800781 11.273438 7.800781 C 11.816406 7.800781 12.328125 7.523438 12.765625 7.292969 C 12.992188 7.171875 13.273438 6.964844 13.457031 6.804688 C 13.640625 6.644531 13.734375 6.511719 13.601562 6.496094 C 13.472656 6.480469 13.480469 6.617188 13.320312 6.734375 C 13.117188 6.886719 12.867188 7.082031 12.671875 7.195312 C 12.324219 7.390625 11.757812 7.671875 11.269531 7.671875 C 10.78125 7.671875 10.390625 7.449219 10.101562 7.21875 C 9.957031 7.101562 9.835938 6.984375 9.742188 6.894531 C 9.671875 6.828125 9.652344 6.679688 9.539062 6.664062 C 9.472656 6.660156 9.453125 6.839844 9.617188 6.96875 Z M 9.617188 6.96875 "/>
</g>
</svg>
