<?xml version="1.0" encoding="UTF-8"?>
<svg xmlns="http://www.w3.org/2000/svg" xmlns:xlink="http://www.w3.org/1999/xlink" width="24px" height="24px" viewBox="0 0 24 24" version="1.1">
<g id="surface1">
<path style="fill:none;stroke-width:4;stroke-linecap:butt;stroke-linejoin:round;stroke:rgb(100%,100%,100%);stroke-opacity:1;stroke-miterlimit:10;" d="M 63.0089 200.593247 L 19.82516 25.680645 L 193.03994 75.544946 Z M 63.0089 200.593247 " transform="matrix(0.105834,0,0,0.105834,0.948697,0.450081)"/>
<path style="fill:none;stroke-width:4;stroke-linecap:butt;stroke-linejoin:round;stroke:rgb(100%,100%,100%);stroke-opacity:1;stroke-miterlimit:10;" d="M 106.377187 50.594341 L 127.969057 138.106006 L 41.41703 113.155401 Z M 106.377187 50.594341 " transform="matrix(0.105834,0,0,0.105834,0.948697,0.450081)"/>
<path style="fill:none;stroke-width:4;stroke-linecap:butt;stroke-linejoin:round;stroke:rgb(100%,100%,100%);stroke-opacity:1;stroke-miterlimit:10;" d="M 84.896044 125.040156 L 74.192382 81.561143 L 117.191576 93.925718 Z M 84.896044 125.040156 " transform="matrix(0.105834,0,0,0.105834,0.948697,0.450081)"/>
<path style="fill:none;stroke-width:4;stroke-linecap:butt;stroke-linejoin:round;stroke:rgb(100%,100%,100%);stroke-opacity:1;stroke-miterlimit:10;" d="M 63.451811 38.155947 L 74.192382 81.634961 L 31.156278 69.270386 Z M 63.451811 38.155947 " transform="matrix(0.105834,0,0,0.105834,0.948697,0.450081)"/>
<path style="fill:none;stroke-width:4;stroke-linecap:butt;stroke-linejoin:round;stroke:rgb(100%,100%,100%);stroke-opacity:1;stroke-miterlimit:10;" d="M 149.487108 62.922007 L 160.190771 106.401021 L 117.191576 94.036446 Z M 149.487108 62.922007 " transform="matrix(0.105834,0,0,0.105834,0.948697,0.450081)"/>
<path style="fill:none;stroke-width:4;stroke-linecap:butt;stroke-linejoin:round;stroke:rgb(100%,100%,100%);stroke-opacity:1;stroke-miterlimit:10;" d="M 84.932953 125.077066 L 95.636615 168.51917 L 52.637421 156.191504 Z M 84.932953 125.077066 " transform="matrix(0.105834,0,0,0.105834,0.948697,0.450081)"/>
</g>
</svg>
